<svg width="110" height="104" viewBox="0 0 110 104" fill="none" xmlns="http://www.w3.org/2000/svg">
<path fill-rule="evenodd" clip-rule="evenodd" d="M42.3692 103.615C65.769 103.615 84.7384 84.6736 84.7384 61.3077C84.7384 37.9418 65.769 19 42.3692 19C18.9693 19 0 37.9418 0 61.3077C0 84.6736 18.9693 103.615 42.3692 103.615Z" fill="#F5F6FA"/>
<path fill-rule="evenodd" clip-rule="evenodd" d="M37.5356 83.8647L12.4128 57.5207C8.72145 53.6508 8.86678 47.5268 12.7519 43.8407C16.608 40.1547 22.741 40.2998 26.4518 44.1793L44.0271 62.5998L92.5287 3.53619C95.9197 -0.575526 102.033 -1.20438 106.17 2.19142C110.317 5.58722 110.908 11.6726 107.517 15.8133L52.0493 83.3326C50.2957 85.4804 47.6991 86.7671 44.9184 86.8638C44.8022 86.8735 44.6956 86.8735 44.5599 86.8735C41.9149 86.8735 39.3765 85.7899 37.5356 83.8647Z" fill="#00C96C"/>
</svg>
